<svg width="63" height="60" viewBox="0 0 63 60" fill="none" xmlns="http://www.w3.org/2000/svg">
<g clip-path="url(#clip0)">
<path fill-rule="evenodd" clip-rule="evenodd" d="M0 -0.000213623V59.1084H59.1086V46.4423H54.8866V54.8864H4.22204V4.22183H42.2205V16.888H54.8866V25.3329H59.1086V12.6659L46.4425 -0.000213623H0Z" fill="#5ED7C6"/>
<mask id="mask0" mask-type="alpha" maskUnits="userSpaceOnUse" x="9" y="20" width="59" height="25">
<path d="M9.49463 20.5261H67.2715V44.1695H9.49463V20.5261Z" fill="white"/>
</mask>
<g mask="url(#mask0)">
<path d="M22.9336 38.3213C22.5 38.9424 21.8936 39.4082 21.1143 39.7188C20.3408 40.0234 19.4385 40.1758 18.4072 40.1758C17.3643 40.1758 16.4385 39.9326 15.6299 39.4463C14.8213 38.9541 14.1943 38.2568 13.749 37.3545C13.3096 36.4521 13.084 35.4062 13.0723 34.2168V33.1006C13.0723 31.1729 13.5205 29.6787 14.417 28.6182C15.3193 27.5576 16.585 27.0273 18.2139 27.0273C19.5498 27.0273 20.625 27.3701 21.4395 28.0557C22.2539 28.7354 22.752 29.7021 22.9336 30.9561H21.2461C20.9297 29.2627 19.9219 28.416 18.2227 28.416C17.0918 28.416 16.2334 28.8145 15.6475 29.6113C15.0674 30.4023 14.7744 31.5508 14.7686 33.0566V34.1025C14.7686 35.5381 15.0967 36.6807 15.7529 37.5303C16.4092 38.374 17.2969 38.7959 18.416 38.7959C19.0488 38.7959 19.6025 38.7256 20.0771 38.585C20.5518 38.4443 20.9443 38.207 21.2549 37.873V34.999H18.293V33.6279H22.9336V38.3213ZM27.5654 40H25.8779V27.2031H27.5654V40ZM37.7168 34.3486H32.3467V40H30.6592V27.2031H38.5869V28.5918H32.3467V32.9688H37.7168V34.3486ZM50.4521 34.0146C50.4521 35.2686 50.2412 36.3643 49.8193 37.3018C49.3975 38.2334 48.7998 38.9453 48.0264 39.4375C47.2529 39.9297 46.3506 40.1758 45.3193 40.1758C44.3115 40.1758 43.418 39.9297 42.6387 39.4375C41.8594 38.9395 41.2529 38.2334 40.8193 37.3193C40.3916 36.3994 40.1719 35.3359 40.1602 34.1289V33.2061C40.1602 31.9756 40.374 30.8887 40.8018 29.9453C41.2295 29.002 41.833 28.2812 42.6123 27.7832C43.3975 27.2793 44.2939 27.0273 45.3018 27.0273C46.3271 27.0273 47.2295 27.2764 48.0088 27.7744C48.7939 28.2666 49.3975 28.9844 49.8193 29.9277C50.2412 30.8652 50.4521 31.958 50.4521 33.2061V34.0146ZM48.7734 33.1885C48.7734 31.6709 48.4688 30.5078 47.8594 29.6992C47.25 28.8848 46.3975 28.4775 45.3018 28.4775C44.2354 28.4775 43.3945 28.8848 42.7793 29.6992C42.1699 30.5078 41.8564 31.6328 41.8389 33.0742V34.0146C41.8389 35.4854 42.1465 36.6426 42.7617 37.4863C43.3828 38.3242 44.2354 38.7432 45.3193 38.7432C46.4092 38.7432 47.2529 38.3477 47.8506 37.5566C48.4482 36.7598 48.7559 35.6201 48.7734 34.1377V33.1885ZM56.7539 34.2959C55.3066 33.8799 54.252 33.3701 53.5898 32.7666C52.9336 32.1572 52.6055 31.4072 52.6055 30.5166C52.6055 29.5088 53.0068 28.6768 53.8096 28.0205C54.6182 27.3584 55.667 27.0273 56.9561 27.0273C57.835 27.0273 58.6172 27.1973 59.3027 27.5371C59.9941 27.877 60.5273 28.3457 60.9023 28.9434C61.2832 29.541 61.4736 30.1943 61.4736 30.9033H59.7773C59.7773 30.1299 59.5312 29.5234 59.0391 29.084C58.5469 28.6387 57.8525 28.416 56.9561 28.416C56.124 28.416 55.4736 28.6006 55.0049 28.9697C54.542 29.333 54.3105 29.8398 54.3105 30.4902C54.3105 31.0117 54.5303 31.4541 54.9697 31.8174C55.415 32.1748 56.168 32.5029 57.2285 32.8018C58.2949 33.1006 59.127 33.4316 59.7246 33.7949C60.3281 34.1523 60.7734 34.5713 61.0605 35.0518C61.3535 35.5322 61.5 36.0977 61.5 36.748C61.5 37.7852 61.0957 38.6172 60.2871 39.2441C59.4785 39.8652 58.3975 40.1758 57.0439 40.1758C56.165 40.1758 55.3447 40.0088 54.583 39.6748C53.8213 39.335 53.2324 38.8721 52.8164 38.2861C52.4062 37.7002 52.2012 37.0352 52.2012 36.291H53.8975C53.8975 37.0645 54.1816 37.6768 54.75 38.1279C55.3242 38.5732 56.0889 38.7959 57.0439 38.7959C57.9346 38.7959 58.6172 38.6143 59.0918 38.251C59.5664 37.8877 59.8037 37.3926 59.8037 36.7656C59.8037 36.1387 59.584 35.6553 59.1445 35.3154C58.7051 34.9697 57.9082 34.6299 56.7539 34.2959Z" fill="white"/>
</g>
</g>
<defs>
<clipPath id="clip0">
<rect width="63" height="60" fill="white"/>
</clipPath>
</defs>
</svg>
